<?xml version="1.0" encoding="UTF-8" standalone="yes"?>
<!-- Created with sK1/UniConvertor (http://sk1project.org/) -->
<svg xmlns="http://www.w3.org/2000/svg" xmlns:xlink="http://www.w3.org/1999/xlink"
  width="1200pt" height="389pt" viewBox="0 0 1200 389"
  fill-rule="evenodd">
<g>
<g>
<path style="stroke:none; fill:#000000" d="M 0 194.5L 0 389L 600 389L 1200 389L 1200 194.5L 1200 0L 600 0L 0 0L 0 194.5zM 203 27.5C 204.6 28.3 206.5 30 207.1 31.3C 209.3 35.3 216.4 44.4 225.3 54.5C 230.2 60 237.4 69 241.3 74.5C 257.4 96.9 296.5 132.7 344.5 168.7C 366.3 185.1 369.1 189.4 363 196.3C 361.3 198.3 358.2 200.9 356.2 202.2C 350.9 205.4 325 225 315 233.3C 277 264.9 242.6 301.3 212.2 342.2L 204.5 352.5L 199.5 352.7C 194.7 353 194.3 352.8 190.2 348.2C 187.9 345.6 183.5 339.7 180.4 335.1C 173.2 324.1 158.4 305.3 156 304C 155 303.5 150.5 298.6 145.9 293.3C 120.4 263.5 82.8 229.2 50.3 206C 44.2 201.6 38 196.6 36.6 194.9C 33.9 191.8 33.2 188.6 35 187.5C 35.6 187.2 36 186.1 36 185.1C 36 183 39.6 179.5 42.7 178.6C 46.4 177.5 66 163 83 148.9C 99.8 134.9 120.7 115.3 135.1 99.9C 159.7 73.6 169.5 61.6 180.5 44C 191.5 26.5 191.2 26.7 198.3 26.1C 199.3 26.1 201.4 26.7 203 27.5zM 67.4 35.1C 71.8 37.7 74 41.1 74 45.2C 73.9 48.2 72.1 52 70.8 52C 70.5 52 69.9 50 69.6 47.5C 69.1 44.6 68.4 43 67.4 43C 66.6 43 66 43.9 66 44.9C 66 47.9 64.9 50 63.4 50C 62.6 50 62 50.5 62 51.1C 62 51.7 60.4 52 58.3 51.8L 54.5 51.5L 54.7 45.1C 54.8 39.7 55.3 38.3 57.6 35.9C 60.9 32.5 62.7 32.3 67.4 35.1zM 77.8 37.5C 79.3 40.7 79.3 44 78 44C 77.5 44 77 43.3 77 42.5C 77 41.6 76.3 39.6 75.5 38C 74.2 35.5 74.2 35 75.3 35C 76.1 35 77.2 36.1 77.8 37.5zM 50.7 49.7C 50.4 50.7 50.2 49.9 50.2 48C 50.2 46.1 50.4 45.3 50.7 46.2C 50.9 47.2 50.9 48.8 50.7 49.7zM 66 55C 66 56.6 65.3 57 62.3 57C 60.2 57 57.8 56.5 57 56C 55.9 55.3 56.6 55 59.7 55C 62 55 64.2 54.5 64.5 54C 65.5 52.4 66 52.8 66 55zM 477 194.5L 477 318L 443 318L 409 318L 409 195.2C 409 127.6 409.3 72 409.7 71.7C 410 71.3 425.3 71 443.7 71L 477 71L 477 194.5zM 703.7 95.2L 703.8 119L 643.9 119L 584 119L 584 144.5L 584 170L 636.8 170C 676.5 170 689.9 170.3 690.8 171.2C 691.7 172.1 692 178.6 692 194.5C 692 210.4 691.7 216.9 690.8 217.8C 689.9 218.7 676.5 219 636.8 219L 584 219L 584 244.5L 584 270L 644 270L 704.1 270L 703.8 293.7L 703.5 317.5L 608 317.5L 512.5 317.5L 512.2 194.2L 512 71L 607.7 71.2L 703.5 71.5L 703.7 95.2zM 929.8 95.2L 930 119L 870.5 119L 811 119L 811 144.5L 811 170L 866.3 170.2L 921.5 170.5L 921.5 194.5L 921.5 218.5L 866.3 218.8L 811 219L 811 244.5L 811 270L 870.5 270L 930 270L 930 294L 930 318L 834.5 318L 739 318L 739 194.5L 739 71L 834.3 71.2L 929.5 71.5L 929.8 95.2zM 1156 95L 1156 119L 1096.5 119L 1037 119L 1037 144.5L 1037 170L 1092.5 170L 1148 170L 1147.8 194.2L 1147.5 218.5L 1092.3 218.8L 1037 219L 1037 244.5L 1037 270L 1096.5 270L 1156 270L 1156 294L 1156 318L 1062.5 318L 969 318L 969 195.2C 969 127.6 969.3 72 969.7 71.7C 970 71.3 1012.1 71 1063.2 71L 1156 71L 1156 95zM 275.6 310.9C 277.8 311.9 281.1 314.5 282.8 316.6C 285.5 319.8 286 321.3 286 325.7C 286 338 277.2 347.2 267.5 345C 258.2 342.9 251.8 330 255.4 320.7C 257.4 315.4 260.5 312.3 265.7 310.5C 270.6 308.7 270.7 308.7 275.6 310.9zM 474 334.4C 475.7 335.1 476.6 336.5 476.8 338.4C 477.3 342.5 476 343.3 471.7 341.5C 466.9 339.5 464.7 339.6 461.9 341.9C 458.3 344.8 460.4 347.8 468.5 351.9C 476.2 355.8 479 359.4 479 365.5C 479 377 464.8 383.6 453.1 377.5C 450.5 376.2 450 375.4 450 372.4C 450 368.4 449.7 368.4 458.7 371.1C 464.5 372.8 468.4 371.5 468.8 367.7C 469.2 364 467.8 362.4 461.1 359C 453.8 355.4 451.9 353.1 451.2 347.4C 450.4 339.8 454.4 334.5 462.5 332.8C 465.2 332.2 470.9 333 474 334.4zM 576.7 335.2C 578.4 336.6 578.4 341.9 576.7 342.6C 576 342.8 574 342.4 572.4 341.5C 568.6 339.6 565.1 339.6 562.8 341.7C 558.9 345.2 560.8 347.6 571.4 353C 574.1 354.3 577.1 356.8 578.1 358.5C 581.9 364.6 579.6 373.6 573.3 377.7C 569.6 380.1 558.8 380.1 554.3 377.7C 551.6 376.3 551 375.3 551 372.6C 551 370.8 551.3 369.1 551.6 368.8C 551.9 368.4 554 369 556.3 370.1C 561.1 372.2 567 372.6 568.8 370.8C 570.6 369 570.3 364.5 568.3 362.8C 567.3 362 564.4 360.3 561.9 359.1C 555.4 356.1 552.9 353 552.2 347.4C 551.3 339.4 555.4 334.2 563.5 333C 567.9 332.4 574.7 333.5 576.7 335.2zM 434.8 334.1C 441.7 335.5 445 339.2 445.6 346.1C 446.5 356.1 441.3 362.1 431 362.8L 425 363.2L 425 371.1L 425 379L 420.6 379C 417.5 379 416 378.5 415.6 377.4C 415.3 376.5 415 366.9 415 356C 415 339.3 415.2 335.9 416.6 334.6C 418.4 332.7 427.3 332.5 434.8 334.1zM 494.8 356.2L 495 379L 490.5 379L 486 379L 486 356.7C 486 344.4 486.3 334 486.7 333.6C 487.1 333.2 489 333 491 333.2L 494.5 333.5L 494.8 356.2zM 532.8 337.2L 533.1 341L 527.1 341L 521 341L 521 360L 521 379L 516.5 379C 510.8 379 510.7 378.8 511.2 357.6L 511.5 341L 505.7 341C 499.4 341 498.3 340 499.4 335.5L 500.1 333L 516.3 333.2L 532.5 333.5L 532.8 337.2zM 616 337L 616 341L 610 341L 604 341L 604 360L 604 379L 601.3 379.1C 597.2 379.3 595.6 378.9 594.8 377.7C 594.4 377 594 368.5 594 358.7L 594 341L 588.5 341C 582.4 341 581.3 340 582.4 335.5L 583 333L 599.5 333L 616 333L 616 337zM 629.7 348.5C 629.9 356.7 630.2 364.5 630.5 365.7C 631.9 371.8 639.6 373.9 644.6 369.7L 647.3 367.4L 647.1 351.4C 647.1 342.7 647.4 334.9 647.8 334.2C 648.4 333.4 650.2 333 652.6 333.2L 656.5 333.5L 656.5 351C 656.5 370.7 655.8 373.1 649 377.3C 644.2 380.3 633 380.4 628.1 377.5C 622.1 374 620.9 370.1 620.3 352C 619.6 333.9 620 332.7 625.9 333.2L 629.5 333.5L 629.7 348.5zM 691.5 335C 698.5 337.7 703 344.9 703.2 353.7C 703.4 362.5 702.2 367.3 698.8 371.5C 693.9 377.3 689.3 379 677.4 379C 667.7 379 667.2 378.9 666.6 376.7C 665.5 372.6 665.9 337 667.1 334.8C 668.2 332.9 668.8 332.8 678.4 333.3C 683.9 333.6 689.9 334.3 691.5 335zM 735.5 337L 735.5 340.5L 727.3 340.8L 719 341.1L 719 346.5L 719 352L 726 352L 733 352L 733 355.5L 733 359L 726 359L 719 359L 719 365L 719 371L 724.3 371.1C 729.3 371.3 732 371.5 734.8 371.8C 735.5 371.9 736 373.5 736 375.5L 736 379L 723.1 379C 710.6 379 710.2 378.9 709.6 376.7C 708.6 372.8 708.9 337 710.1 334.9C 711 333.1 712 333 723.3 333.2L 735.5 333.5L 735.5 337zM 755.8 334.8C 756.7 335.8 760.7 342.8 764.5 350.3L 771.5 363.9L 772 348.7L 772.5 333.5L 776.3 333.2L 780 332.9L 779.8 355.7L 779.5 378.5L 776.1 378.8C 769.5 379.5 769 378.9 760.5 362.6L 752.5 347.1L 752.2 363L 752 379L 748.1 379C 745.5 379 744 378.5 743.6 377.4C 743.3 376.5 743 366.9 743 356C 743 339.3 743.2 335.9 744.6 334.6C 746.8 332.4 753.5 332.5 755.8 334.8zM 818.8 337.2L 819.1 341L 813.1 341L 807 341L 807 360L 807 379L 804.8 379.1C 800.8 379.3 798.5 378.8 797.8 377.6C 797.4 377 797 368.5 797 358.7L 797 341L 791.5 341C 785.4 341 784.3 340 785.4 335.5L 786.1 333L 802.3 333.2L 818.5 333.5L 818.8 337.2zM 863.3 335C 869.1 337.8 870.9 346.7 866.6 351.7L 864.2 354.4L 866.4 355.5C 869.6 357.1 872.3 363.4 871.6 367.5C 870.7 372.2 866.6 376.7 862.2 378C 860.2 378.5 854.4 379 849.4 379C 840.7 379 840.2 378.9 839.6 376.7C 839.3 375.5 839 365.9 839 355.3C 839 331.6 838.5 332.6 851.4 333.2C 856.4 333.5 861.8 334.3 863.3 335zM 899.5 334C 901.9 334.5 904.6 336.1 906.4 338.1C 909 341 909.2 341.8 908.8 346.8C 908.4 351.5 907.8 352.8 905.1 355.2C 902.1 357.9 902 358.3 903.3 359.8C 905.4 362.1 911 374.7 911 377.1C 911 378.1 910.4 379.1 909.8 379.1C 909.1 379.2 907.5 379.4 906.3 379.5C 903 379.8 901.5 378.2 899 371.5C 895.9 362.9 894.5 361 891 361L 888 361L 888 370L 888 379L 883.5 379L 879 379L 879 356.7C 879 344.4 879.3 334 879.7 333.7C 880.6 332.7 894.9 332.9 899.5 334zM 940.1 335.2C 940.7 336.3 944.3 346.5 948 357.7C 954.8 378 954.8 378.1 952.6 379C 951.4 379.4 949.2 379.6 947.7 379.3C 945.6 378.9 944.8 377.8 943.5 373.9L 941.8 369L 933.5 369L 925.2 369L 924 373.9C 923.3 377.1 922.2 379 921.2 379.2C 918.2 379.8 914 378.8 914 377.5C 914 376.8 916 370.5 918.3 363.4C 920.7 356.3 923.7 347.3 925 343.5C 928.4 333 928.4 333 934 333C 938 333 939.1 333.4 940.1 335.2zM 972.2 334.2C 973.1 334.9 977.2 342.1 981.4 350.2L 988.9 364.9L 989.2 349.2L 989.5 333.5L 993 333.5L 996.5 333.5L 996.5 356L 996.5 378.5L 992 378.8C 989.5 378.9 987 378.7 986.4 378.3C 985.8 377.8 981.7 370.5 977.2 362L 969 346.5L 969 362.7L 969 379L 965.1 379C 962.5 379 961 378.5 960.6 377.4C 960.3 376.5 960 366.9 960 356C 960 339.3 960.2 335.9 961.6 334.6C 963.5 332.7 970 332.5 972.2 334.2zM 1032.6 334.6C 1035.6 336 1036 336.7 1036 340.1C 1036 344.8 1035.1 345.4 1031.4 342.9C 1027.3 340.2 1020.9 340.4 1018.3 343.2C 1014.9 347 1014 349.6 1014 356C 1014 362.4 1015.6 367.6 1018.3 369.8C 1021.3 372.3 1026.6 372.4 1031.1 370.1C 1033.4 368.9 1035.4 368.1 1035.7 368.4C 1036.7 369.3 1036.2 375 1035 376.5C 1031.6 380.5 1018.7 380.8 1012.5 377C 1005.9 372.9 1002.5 363.2 1004 353C 1005.4 343.1 1009.1 337.3 1015.5 334.4C 1019.6 332.6 1028.5 332.7 1032.6 334.6zM 1051.8 342.2L 1052.1 351L 1060 351L 1067.9 351L 1068.2 342.2L 1068.5 333.5L 1072.5 333.5L 1076.5 333.5L 1076.8 356.2C 1077.1 381.2 1077.3 380.1 1070.8 379.2C 1068.1 378.8 1068.1 378.8 1067.8 369.2L 1067.5 359.6L 1060 359.7L 1052.5 359.8L 1052.2 369.4L 1051.9 379L 1049.2 379.1C 1045.2 379.3 1043.6 378.9 1042.8 377.7C 1041.9 376.3 1041.7 336.8 1042.6 334.5C 1043.1 333.3 1044.3 333 1047.4 333.2L 1051.5 333.5L 1051.8 342.2z"/>
<path style="stroke:none; fill:#000000" d="M 192.4 69.4C 190.1 70.1 185.1 73.4 181.3 76.6C 167.7 88.1 157.9 96 157 96C 156.5 96 155.9 96.9 155.5 98C 155.2 99 152.1 102.2 148.7 105.1C 131.6 119.2 103.2 149.4 95.6 161.3C 94.7 162.9 90.9 167.4 87.3 171.3C 78.3 181.1 76 185 76 190.4C 76 195.6 76.8 198 78.4 198C 79 198 81.8 201.3 84.5 205.2C 98 224.7 112.8 241.4 134.3 261.5C 141.9 268.7 151.6 277.8 155.8 281.8C 171.1 296.2 190 309 198.5 310.6C 204.3 311.6 208.1 310.3 216.4 304.2C 239 287.8 262.6 267.4 279.2 250.2C 294.8 233.8 320 200.7 321.6 194.3C 322.9 189.4 321 183.3 316.2 176.5C 294.6 146 269.9 119.4 239 93.6C 234.3 89.7 227.2 83.6 223.1 80.1C 211.8 70.3 201.2 66.6 192.4 69.4zM 209.5 79.5C 217.4 83.5 221 85.9 229.5 93.3C 239.7 102.1 262.5 124.6 274.4 137.5C 294.6 159.4 316 188.5 316 194.1C 316 195.8 305.3 209.1 285.6 232.1C 275.3 244.1 249.2 270.4 237.5 280.7C 227.8 289.2 207 302.7 202.4 303.6C 194.5 305.1 191.9 303.6 170 285.1C 145.6 264.4 96.6 214.1 90.6 203.7C 86.9 197.1 85.6 190.2 87.3 185.4C 89.3 179.7 96.6 168.7 105.6 158C 113.4 148.7 137.3 124.1 148 114.4C 159.5 103.9 187.8 80.9 192.5 78.2C 196 76.2 204.1 76.8 209.5 79.5z"/>
<path style="stroke:none; fill:#000000" d="M 195.7 109.2C 194.3 113.8 191.7 122.7 190.1 129C 188.4 135.3 186.2 143.5 185.1 147.2C 184.1 150.8 183.4 154.1 183.8 154.4C 184.1 154.7 186.8 155 189.7 155L 195.2 155L 194.6 161.2C 194.3 164.7 193.5 173.8 193 181.5C 192.4 189.2 191.7 197.9 191.4 200.8L 190.8 206.1L 198.5 205.8L 206.2 205.5L 206.4 180.5L 206.5 155.5L 212.3 155.2C 215.4 155 218 154.7 218 154.4C 218 154.1 215.6 147.1 212.6 138.7C 209.7 130.3 205.6 118.4 203.4 112.2C 201.3 106.1 199.3 101 199 101C 198.6 101 197.2 104.7 195.7 109.2z"/>
<path style="stroke:none; fill:#000000" d="M 160 164.6C 133.9 177.6 132.8 178.2 129.8 182.8C 128.8 184.3 128 186.9 128 188.6C 128 191.8 131.5 197.9 135.3 201.2C 141.2 206.3 155.7 211.3 173 214.1C 182.8 215.7 211.9 215.7 224 214.1C 236.4 212.4 247.3 210.2 248 209.1C 248.3 208.6 249.9 207.4 251.6 206.4C 259.2 201.7 266 193.8 266 189.6C 265.9 186.7 264.5 185.1 257.1 179.7C 253.6 177.1 251.1 174.9 251.4 174.9C 251.7 174.8 252.5 174.6 253 174.5C 253.6 174.4 254.3 174.2 254.8 174.1C 255.2 174 251.5 172.6 246.5 171.1C 236.3 167.9 227 166.3 227 167.8C 227 168.3 227.9 170.8 229 173.2L 231 177.7L 237.6 178.3C 246.4 179.1 251 181.5 253.4 186.3C 255.7 191.1 254.9 192.8 247.5 198.7C 236.6 207.4 208 211.2 177.8 207.9C 168 206.8 167.3 206.6 160.4 202C 151.5 195.9 149.7 192.5 152.6 187.2C 155.4 182.1 160.2 179.5 173.8 176C 176.1 175.4 177.8 174.5 177.5 174C 177 173.2 166.1 165.3 163.5 163.9C 163 163.6 161.4 163.9 160 164.6z"/>
<path style="stroke:none; fill:#000000" d="M 190.7 236.2C 190.1 252.5 188.9 264.6 187.4 268.4C 186.9 269.8 188 270 198.4 270L 210 270L 210 266.2C 210 264.2 209.3 255.1 208.5 246C 207.7 236.9 207 227.1 206.9 224.2L 206.7 219L 199 219L 191.3 219L 190.7 236.2z"/>
<path style="stroke:none; fill:#000000" d="M 425 348.5L 425 356L 428.3 356C 433 356 436 352.9 436 348C 436 343.4 433.4 341 428.3 341L 425 341L 425 348.5z"/>
<path style="stroke:none; fill:#000000" d="M 676.2 356.1L 676.5 371.5L 681 371.3C 683.5 371.1 686.6 370.5 687.8 369.8C 694.8 366.1 695.9 350 689.5 344C 687.7 342.3 685.5 341.5 681.5 341.2L 675.9 340.7L 676.2 356.1z"/>
<path style="stroke:none; fill:#000000" d="M 849 346.5L 849 352L 852.9 352C 855.9 352 857.3 351.4 858.4 349.8C 861.7 345.2 859 341 852.7 341L 849 341L 849 346.5z"/>
<path style="stroke:none; fill:#000000" d="M 849 365.4L 849 372L 853.5 372C 858.6 372 862 369.5 862 365.7C 862 361.6 859.7 359.8 854.2 359.2L 849 358.7L 849 365.4z"/>
<path style="stroke:none; fill:#000000" d="M 888 347L 888 353L 891.6 353C 897.2 353 899 351.5 899 347C 899 342.5 897.2 341 891.6 341L 888 341L 888 347z"/>
<path style="stroke:none; fill:#000000" d="M 932.2 346.7C 931.6 348.8 930.5 352.9 929.7 355.7L 928.2 361L 933.6 361C 936.6 361 939 360.7 939 360.4C 939 359.3 933.9 343 933.6 343C 933.4 343 932.8 344.7 932.2 346.7z"/>
</g>
</g>
</svg>